<?xml version="1.0" encoding="UTF-8"?>
<svg width="479px" height="49px" viewBox="0 0 479 49" version="1.1" xmlns="http://www.w3.org/2000/svg" xmlns:xlink="http://www.w3.org/1999/xlink">
    <!-- Generator: Sketch 52.6 (67491) - http://www.bohemiancoding.com/sketch -->
    <title>gloomcipher</title>
    <desc>Created with Sketch.</desc>
    <g id="gloomcipher" stroke="none" stroke-width="1" fill="none" fill-rule="evenodd" stroke-linecap="square" stroke-linejoin="round">
        <g id="g" transform="translate(-10.000000, -1.000000)" stroke="#000000" stroke-width="5">
            <path d="M13,25.9387755 L34.9387755,4 L13,25.9387755 Z M34.9387755,46.122449 L13,46.122449 L34.9387755,46.122449 Z M34.9387755,4 L34.9387755,46.122449 L34.9387755,4 Z" id="Combined-Shape"></path>
        </g>
        <g id="l" transform="translate(25.000000, -1.000000)" stroke="#000000" stroke-width="5">
            <path d="M14.8431373,4 L14.8431373,46.1568627 L14.8431373,4 Z M36.4607843,24.5784314 L15.3039216,33.4607843 L15.3039216,15.6960784 L36.4607843,24.5784314 Z" id="Combined-Shape"></path>
        </g>
        <g id="o" transform="translate(56.000000, -1.000000)" stroke="#000000" stroke-width="5">
            <path d="M34.78,4 L34.78,47 L34.78,4 Z M34.78,4 L15,25.5 L34.78,4 Z M15,25.93 L34.78,25.93 L15,25.93 Z" id="Combined-Shape"></path>
        </g>
        <g id="o" transform="translate(87.000000, -1.000000)" stroke="#000000" stroke-width="5">
            <path d="M34.78,4 L34.78,47 L34.78,4 Z M34.78,4 L15,25.5 L34.78,4 Z M15,25.93 L34.78,25.93 L15,25.93 Z" id="Combined-Shape"></path>
        </g>
        <g id="m" transform="translate(127.000000, -1.000000)" stroke="#000000" stroke-width="5">
            <path d="M5.83627318,4 L5.83627318,46.2317956 L5.83627318,4 Z M5.83627318,46.2317956 L44.3048394,35.243555 L5.83627318,46.2317956 Z M44.3048394,4 L44.3048394,46.2317956 L44.3048394,4 Z" id="Combined-Shape"></path>
        </g>
        <g id="c" transform="translate(177.000000, -1.000000)" stroke="#000000" stroke-width="5">
            <path d="M5.97727273,4 L5.97727273,46.5865385 L5.97727273,4 Z M45.0681818,4 L5.97727273,46.5865385 L45.0681818,4 Z M25.5227273,25.5 L45.0681818,45.0454545 L25.5227273,25.5 Z" id="Combined-Shape"></path>
        </g>
        <g id="i" transform="translate(227.000000, -1.000000)" stroke="#000000" stroke-width="5">
            <path d="M4,46.1568627 L25.0784314,4 L4,46.1568627 Z M25.0784314,4 L44.4705882,23.5 L25.0784314,4 Z M44.4705882,47 L44.4705882,4 L44.4705882,47 Z" id="Combined-Shape"></path>
        </g>
        <g id="p" transform="translate(277.000000, -1.000000)" stroke="#000000" stroke-width="5">
            <path d="M4.83703033,46.1629697 L46.6885469,46.1629697 L4.83703033,46.1629697 Z M46.6885469,4 L25.7627886,45.8515165 L46.6885469,4 Z M25.7627886,45.8515165 L4.83703033,4 L25.7627886,45.8515165 Z" id="Combined-Shape"></path>
        </g>
        <g id="h" transform="translate(329.000000, -1.000000)" stroke="#000000" stroke-width="5">
            <path d="M5.25419092,44.3971977 L5.25419092,4.68115206 L5.25419092,44.3971977 Z M5.25419092,4.68115206 L44.9702366,45.233325 L5.25419092,4.68115206 Z M5.25419092,4.61309519 L46.2244275,4.68115206 L5.25419092,4.61309519 Z" id="Combined-Shape"></path>
        </g>
        <g id="e" transform="translate(379.000000, -1.000000)" stroke="#000000" stroke-width="5">
            <path d="M25.2830189,4 L25.2830189,46.5943396 L25.2830189,4 Z M5,4 L25.2830189,24.2830189 L5,4 Z M45.5660377,4 L25.2830189,24.2830189 L45.5660377,4 Z" id="Combined-Shape"></path>
        </g>
        <g id="r" transform="translate(429.000000, -1.000000)" stroke="#000000" stroke-width="5">
            <path d="M25.5,25.5 L47,4 L25.5,25.5 L4,4 L25.5,25.5 Z M25.5,25.5 L47,47 L25.5,25.5 L4,47 L25.5,25.5 Z" id="Combined-Shape"></path>
        </g>
    </g>
</svg>